<svg xmlns="http://www.w3.org/2000/svg" xmlns:xlink="http://www.w3.org/1999/xlink" contentStyleType="text/css" data-diagram-type="CLASS" height="991px" preserveAspectRatio="none" style="width:1057px;height:991px;background:#FFFFFF;" version="1.1" viewBox="0 0 1057 991" width="1057px" zoomAndPan="magnify"><defs/><g><!--class User--><g class="entity" data-entity="User" data-source-line="2" data-uid="ent0002" id="entity_User"><rect fill="#F1F1F1" height="227.2656" rx="2.5" ry="2.5" style="stroke:#181818;stroke-width:0.5;" width="217.0439" x="416.9" y="7"/><ellipse cx="505.2169" cy="23" fill="#ADD1B2" rx="11" ry="11" style="stroke:#181818;stroke-width:1;"/><path d="M508.1856,28.6406 Q507.6075,28.9375 506.9669,29.0781 Q506.3263,29.2344 505.6231,29.2344 Q503.1231,29.2344 501.795,27.5938 Q500.4825,25.9375 500.4825,22.8125 Q500.4825,19.6875 501.795,18.0313 Q503.1231,16.375 505.6231,16.375 Q506.3263,16.375 506.9669,16.5313 Q507.6231,16.6875 508.1856,16.9844 L508.1856,19.7031 Q507.5606,19.125 506.9669,18.8594 Q506.3731,18.5781 505.7481,18.5781 Q504.4044,18.5781 503.7169,19.6563 Q503.0294,20.7188 503.0294,22.8125 Q503.0294,24.9063 503.7169,25.9844 Q504.4044,27.0469 505.7481,27.0469 Q506.3731,27.0469 506.9669,26.7813 Q507.5606,26.5 508.1856,25.9219 L508.1856,28.6406 Z " fill="#000000"/><text fill="#000000" font-family="sans-serif" font-size="14" lengthAdjust="spacing" textLength="31.9102" x="525.7169" y="27.8467">User</text><line style="stroke:#181818;stroke-width:0.5;" x1="417.9" x2="632.9439" y1="39" y2="39"/><ellipse cx="427.9" cy="52.6484" fill="none" rx="3" ry="3" style="stroke:#038048;stroke-width:1;"/><text fill="#000000" font-family="sans-serif" font-size="14" lengthAdjust="spacing" textLength="56.0684" x="436.9" y="55.9951">id: Long</text><ellipse cx="427.9" cy="68.9453" fill="none" rx="3" ry="3" style="stroke:#038048;stroke-width:1;"/><text fill="#000000" font-family="sans-serif" font-size="14" lengthAdjust="spacing" textLength="159.8311" x="436.9" y="72.292">email: String {unique}</text><ellipse cx="427.9" cy="85.2422" fill="none" rx="3" ry="3" style="stroke:#038048;stroke-width:1;"/><text fill="#000000" font-family="sans-serif" font-size="14" lengthAdjust="spacing" textLength="191.0439" x="436.9" y="88.5889">password: String {hashed}</text><ellipse cx="427.9" cy="101.5391" fill="none" rx="3" ry="3" style="stroke:#038048;stroke-width:1;"/><text fill="#000000" font-family="sans-serif" font-size="14" lengthAdjust="spacing" textLength="113.832" x="436.9" y="104.8857">fullName: String</text><ellipse cx="427.9" cy="117.8359" fill="none" rx="3" ry="3" style="stroke:#038048;stroke-width:1;"/><text fill="#000000" font-family="sans-serif" font-size="14" lengthAdjust="spacing" textLength="133.7725" x="436.9" y="121.1826">department: String</text><ellipse cx="427.9" cy="134.1328" fill="none" rx="3" ry="3" style="stroke:#038048;stroke-width:1;"/><text fill="#000000" font-family="sans-serif" font-size="14" lengthAdjust="spacing" textLength="98.6973" x="436.9" y="137.4795">role: UserRole</text><ellipse cx="427.9" cy="150.4297" fill="none" rx="3" ry="3" style="stroke:#038048;stroke-width:1;"/><text fill="#000000" font-family="sans-serif" font-size="14" lengthAdjust="spacing" textLength="156.4473" x="436.9" y="153.7764">createdAt: Timestamp</text><ellipse cx="427.9" cy="166.7266" fill="none" rx="3" ry="3" style="stroke:#038048;stroke-width:1;"/><text fill="#000000" font-family="sans-serif" font-size="14" lengthAdjust="spacing" textLength="120.5928" x="436.9" y="170.0732">isActive: Boolean</text><line style="stroke:#181818;stroke-width:0.5;" x1="417.9" x2="632.9439" y1="177.375" y2="177.375"/><ellipse cx="427.9" cy="191.0234" fill="#84BE84" rx="3" ry="3" style="stroke:#038048;stroke-width:1;"/><text fill="#000000" font-family="sans-serif" font-size="14" lengthAdjust="spacing" textLength="65.2217" x="436.9" y="194.3701">register()</text><ellipse cx="427.9" cy="207.3203" fill="#84BE84" rx="3" ry="3" style="stroke:#038048;stroke-width:1;"/><text fill="#000000" font-family="sans-serif" font-size="14" lengthAdjust="spacing" textLength="45.0283" x="436.9" y="210.667">login()</text><ellipse cx="427.9" cy="223.6172" fill="#84BE84" rx="3" ry="3" style="stroke:#038048;stroke-width:1;"/><text fill="#000000" font-family="sans-serif" font-size="14" lengthAdjust="spacing" textLength="112.957" x="436.9" y="226.9639">resetPassword()</text></g><!--class UserRole--><g class="entity" data-entity="UserRole" data-source-line="16" data-uid="ent0003" id="entity_UserRole"><rect fill="#F1F1F1" height="96.8906" rx="2.5" ry="2.5" style="stroke:#181818;stroke-width:0.5;" width="94.7061" x="155.06" y="368.3"/><ellipse cx="170.06" cy="384.3" fill="#EB937F" rx="11" ry="11" style="stroke:#181818;stroke-width:1;"/><path d="M174.1694,390.3 L166.4506,390.3 L166.4506,377.9094 L174.1694,377.9094 L174.1694,380.0656 L168.9038,380.0656 L168.9038,382.7375 L173.6694,382.7375 L173.6694,384.8938 L168.9038,384.8938 L168.9038,388.1438 L174.1694,388.1438 L174.1694,390.3 Z " fill="#000000"/><text fill="#000000" font-family="sans-serif" font-size="14" lengthAdjust="spacing" textLength="62.7061" x="184.06" y="389.1467">UserRole</text><line style="stroke:#181818;stroke-width:0.5;" x1="156.06" x2="248.7661" y1="400.3" y2="400.3"/><text fill="#000000" font-family="sans-serif" font-size="14" lengthAdjust="spacing" textLength="74.4297" x="161.06" y="417.2951">EMPLOYEE</text><text fill="#000000" font-family="sans-serif" font-size="14" lengthAdjust="spacing" textLength="71.1279" x="161.06" y="433.592">MANAGER</text><text fill="#000000" font-family="sans-serif" font-size="14" lengthAdjust="spacing" textLength="47.0381" x="161.06" y="449.8889">ADMIN</text><line style="stroke:#181818;stroke-width:0.5;" x1="156.06" x2="248.7661" y1="457.1906" y2="457.1906"/></g><!--class Application--><g class="entity" data-entity="Application" data-source-line="22" data-uid="ent0004" id="entity_Application"><rect fill="#F1F1F1" height="210.9688" rx="2.5" ry="2.5" style="stroke:#181818;stroke-width:0.5;" width="201.0205" x="284.91" y="311.26"/><ellipse cx="342.0584" cy="327.26" fill="#ADD1B2" rx="11" ry="11" style="stroke:#181818;stroke-width:1;"/><path d="M345.0272,332.9006 Q344.4491,333.1975 343.8084,333.3381 Q343.1678,333.4944 342.4647,333.4944 Q339.9647,333.4944 338.6366,331.8538 Q337.3241,330.1975 337.3241,327.0725 Q337.3241,323.9475 338.6366,322.2913 Q339.9647,320.635 342.4647,320.635 Q343.1678,320.635 343.8084,320.7913 Q344.4647,320.9475 345.0272,321.2444 L345.0272,323.9631 Q344.4022,323.385 343.8084,323.1194 Q343.2147,322.8381 342.5897,322.8381 Q341.2459,322.8381 340.5584,323.9163 Q339.8709,324.9788 339.8709,327.0725 Q339.8709,329.1663 340.5584,330.2444 Q341.2459,331.3069 342.5897,331.3069 Q343.2147,331.3069 343.8084,331.0413 Q344.4022,330.76 345.0272,330.1819 L345.0272,332.9006 Z " fill="#000000"/><text fill="#000000" font-family="sans-serif" font-size="14" lengthAdjust="spacing" textLength="78.2236" x="362.5584" y="332.1067">Application</text><line style="stroke:#181818;stroke-width:0.5;" x1="285.91" x2="484.9305" y1="343.26" y2="343.26"/><ellipse cx="295.91" cy="356.9084" fill="none" rx="3" ry="3" style="stroke:#038048;stroke-width:1;"/><text fill="#000000" font-family="sans-serif" font-size="14" lengthAdjust="spacing" textLength="56.0684" x="304.91" y="360.2551">id: Long</text><ellipse cx="295.91" cy="373.2053" fill="none" rx="3" ry="3" style="stroke:#038048;stroke-width:1;"/><text fill="#000000" font-family="sans-serif" font-size="14" lengthAdjust="spacing" textLength="78.3193" x="304.91" y="376.552">title: String</text><ellipse cx="295.91" cy="389.5022" fill="none" rx="3" ry="3" style="stroke:#038048;stroke-width:1;"/><text fill="#000000" font-family="sans-serif" font-size="14" lengthAdjust="spacing" textLength="128.7891" x="304.91" y="392.8489">description: String</text><ellipse cx="295.91" cy="405.7991" fill="none" rx="3" ry="3" style="stroke:#038048;stroke-width:1;"/><text fill="#000000" font-family="sans-serif" font-size="14" lengthAdjust="spacing" textLength="81.1768" x="304.91" y="409.1457">fields: JSON</text><ellipse cx="295.91" cy="422.0959" fill="none" rx="3" ry="3" style="stroke:#038048;stroke-width:1;"/><text fill="#000000" font-family="sans-serif" font-size="14" lengthAdjust="spacing" textLength="175.0205" x="304.91" y="425.4426">status: ApplicationStatus</text><ellipse cx="295.91" cy="438.3928" fill="none" rx="3" ry="3" style="stroke:#038048;stroke-width:1;"/><text fill="#000000" font-family="sans-serif" font-size="14" lengthAdjust="spacing" textLength="156.4473" x="304.91" y="441.7395">createdAt: Timestamp</text><ellipse cx="295.91" cy="454.6897" fill="none" rx="3" ry="3" style="stroke:#038048;stroke-width:1;"/><text fill="#000000" font-family="sans-serif" font-size="14" lengthAdjust="spacing" textLength="161.0273" x="304.91" y="458.0364">updatedAt: Timestamp</text><line style="stroke:#181818;stroke-width:0.5;" x1="285.91" x2="484.9305" y1="465.3381" y2="465.3381"/><ellipse cx="295.91" cy="478.9866" fill="#84BE84" rx="3" ry="3" style="stroke:#038048;stroke-width:1;"/><text fill="#000000" font-family="sans-serif" font-size="14" lengthAdjust="spacing" textLength="58.9941" x="304.91" y="482.3332">submit()</text><ellipse cx="295.91" cy="495.2834" fill="#84BE84" rx="3" ry="3" style="stroke:#038048;stroke-width:1;"/><text fill="#000000" font-family="sans-serif" font-size="14" lengthAdjust="spacing" textLength="128.1602" x="304.91" y="498.6301">attachDocument()</text><ellipse cx="295.91" cy="511.5803" fill="#84BE84" rx="3" ry="3" style="stroke:#038048;stroke-width:1;"/><text fill="#000000" font-family="sans-serif" font-size="14" lengthAdjust="spacing" textLength="104.8633" x="304.91" y="514.927">updateStatus()</text></g><!--class ApplicationStatus--><g class="entity" data-entity="ApplicationStatus" data-source-line="35" data-uid="ent0005" id="entity_ApplicationStatus"><rect fill="#F1F1F1" height="96.8906" rx="2.5" ry="2.5" style="stroke:#181818;stroke-width:0.5;" width="154.835" x="7" y="648.12"/><ellipse cx="22" cy="664.12" fill="#EB937F" rx="11" ry="11" style="stroke:#181818;stroke-width:1;"/><path d="M26.1094,670.12 L18.3906,670.12 L18.3906,657.7294 L26.1094,657.7294 L26.1094,659.8856 L20.8438,659.8856 L20.8438,662.5575 L25.6094,662.5575 L25.6094,664.7138 L20.8438,664.7138 L20.8438,667.9638 L26.1094,667.9638 L26.1094,670.12 Z " fill="#000000"/><text fill="#000000" font-family="sans-serif" font-size="14" lengthAdjust="spacing" textLength="122.835" x="36" y="668.9667">ApplicationStatus</text><line style="stroke:#181818;stroke-width:0.5;" x1="8" x2="160.835" y1="680.12" y2="680.12"/><text fill="#000000" font-family="sans-serif" font-size="14" lengthAdjust="spacing" textLength="63.9912" x="13" y="697.1151">PENDING</text><text fill="#000000" font-family="sans-serif" font-size="14" lengthAdjust="spacing" textLength="76.4121" x="13" y="713.412">APPROVED</text><text fill="#000000" font-family="sans-serif" font-size="14" lengthAdjust="spacing" textLength="69.501" x="13" y="729.7089">REJECTED</text><line style="stroke:#181818;stroke-width:0.5;" x1="8" x2="160.835" y1="737.0106" y2="737.0106"/></g><!--class Template--><g class="entity" data-entity="Template" data-source-line="41" data-uid="ent0006" id="entity_Template"><rect fill="#F1F1F1" height="194.6719" rx="2.5" ry="2.5" style="stroke:#181818;stroke-width:0.5;" width="182.4473" x="197.19" y="599.23"/><ellipse cx="251.0333" cy="615.23" fill="#ADD1B2" rx="11" ry="11" style="stroke:#181818;stroke-width:1;"/><path d="M254.002,620.8706 Q253.4239,621.1675 252.7833,621.3081 Q252.1426,621.4644 251.4395,621.4644 Q248.9395,621.4644 247.6114,619.8238 Q246.2989,618.1675 246.2989,615.0425 Q246.2989,611.9175 247.6114,610.2613 Q248.9395,608.605 251.4395,608.605 Q252.1426,608.605 252.7833,608.7613 Q253.4395,608.9175 254.002,609.2144 L254.002,611.9331 Q253.377,611.355 252.7833,611.0894 Q252.1895,610.8081 251.5645,610.8081 Q250.2208,610.8081 249.5333,611.8863 Q248.8458,612.9488 248.8458,615.0425 Q248.8458,617.1363 249.5333,618.2144 Q250.2208,619.2769 251.5645,619.2769 Q252.1895,619.2769 252.7833,619.0113 Q253.377,618.73 254.002,618.1519 L254.002,620.8706 Z " fill="#000000"/><text fill="#000000" font-family="sans-serif" font-size="14" lengthAdjust="spacing" textLength="66.2607" x="271.5333" y="620.0767">Template</text><line style="stroke:#181818;stroke-width:0.5;" x1="198.19" x2="378.6373" y1="631.23" y2="631.23"/><ellipse cx="208.19" cy="644.8784" fill="none" rx="3" ry="3" style="stroke:#038048;stroke-width:1;"/><text fill="#000000" font-family="sans-serif" font-size="14" lengthAdjust="spacing" textLength="56.0684" x="217.19" y="648.2251">id: Long</text><ellipse cx="208.19" cy="661.1753" fill="none" rx="3" ry="3" style="stroke:#038048;stroke-width:1;"/><text fill="#000000" font-family="sans-serif" font-size="14" lengthAdjust="spacing" textLength="90.6514" x="217.19" y="664.522">name: String</text><ellipse cx="208.19" cy="677.4722" fill="none" rx="3" ry="3" style="stroke:#038048;stroke-width:1;"/><text fill="#000000" font-family="sans-serif" font-size="14" lengthAdjust="spacing" textLength="128.7891" x="217.19" y="680.8189">description: String</text><ellipse cx="208.19" cy="693.7691" fill="none" rx="3" ry="3" style="stroke:#038048;stroke-width:1;"/><text fill="#000000" font-family="sans-serif" font-size="14" lengthAdjust="spacing" textLength="141.0391" x="217.19" y="697.1157">type: TemplateType</text><ellipse cx="208.19" cy="710.0659" fill="none" rx="3" ry="3" style="stroke:#038048;stroke-width:1;"/><text fill="#000000" font-family="sans-serif" font-size="14" lengthAdjust="spacing" textLength="81.1768" x="217.19" y="713.4126">fields: JSON</text><ellipse cx="208.19" cy="726.3628" fill="none" rx="3" ry="3" style="stroke:#038048;stroke-width:1;"/><text fill="#000000" font-family="sans-serif" font-size="14" lengthAdjust="spacing" textLength="156.4473" x="217.19" y="729.7095">createdAt: Timestamp</text><ellipse cx="208.19" cy="742.6597" fill="none" rx="3" ry="3" style="stroke:#038048;stroke-width:1;"/><text fill="#000000" font-family="sans-serif" font-size="14" lengthAdjust="spacing" textLength="120.5928" x="217.19" y="746.0064">isActive: Boolean</text><line style="stroke:#181818;stroke-width:0.5;" x1="198.19" x2="378.6373" y1="753.3081" y2="753.3081"/><ellipse cx="208.19" cy="766.9566" fill="#84BE84" rx="3" ry="3" style="stroke:#038048;stroke-width:1;"/><text fill="#000000" font-family="sans-serif" font-size="14" lengthAdjust="spacing" textLength="121.9326" x="217.19" y="770.3032">createTemplate()</text><ellipse cx="208.19" cy="783.2534" fill="#84BE84" rx="3" ry="3" style="stroke:#038048;stroke-width:1;"/><text fill="#000000" font-family="sans-serif" font-size="14" lengthAdjust="spacing" textLength="100.8779" x="217.19" y="786.6001">updateFields()</text></g><!--class TemplateType--><g class="entity" data-entity="TemplateType" data-source-line="53" data-uid="ent0007" id="entity_TemplateType"><rect fill="#F1F1F1" height="113.1875" rx="2.5" ry="2.5" style="stroke:#181818;stroke-width:0.5;" width="157.3252" x="209.75" y="870.9"/><ellipse cx="235.8774" cy="886.9" fill="#EB937F" rx="11" ry="11" style="stroke:#181818;stroke-width:1;"/><path d="M239.9868,892.9 L232.268,892.9 L232.268,880.5094 L239.9868,880.5094 L239.9868,882.6656 L234.7211,882.6656 L234.7211,885.3375 L239.4868,885.3375 L239.4868,887.4938 L234.7211,887.4938 L234.7211,890.7438 L239.9868,890.7438 L239.9868,892.9 Z " fill="#000000"/><text fill="#000000" font-family="sans-serif" font-size="14" lengthAdjust="spacing" textLength="100.5977" x="252.3501" y="891.7467">TemplateType</text><line style="stroke:#181818;stroke-width:0.5;" x1="210.75" x2="366.0752" y1="902.9" y2="902.9"/><text fill="#000000" font-family="sans-serif" font-size="14" lengthAdjust="spacing" textLength="72.6797" x="215.75" y="919.8951">VACATION</text><text fill="#000000" font-family="sans-serif" font-size="14" lengthAdjust="spacing" textLength="107.8096" x="215.75" y="936.192">BUSINESS_TRIP</text><text fill="#000000" font-family="sans-serif" font-size="14" lengthAdjust="spacing" textLength="83.6172" x="215.75" y="952.4889">SICK_LEAVE</text><text fill="#000000" font-family="sans-serif" font-size="14" lengthAdjust="spacing" textLength="145.3252" x="215.75" y="968.7857">FIRE_SAFETY_CHECK</text><line style="stroke:#181818;stroke-width:0.5;" x1="210.75" x2="366.0752" y1="976.0875" y2="976.0875"/></g><!--class Document--><g class="entity" data-entity="Document" data-source-line="60" data-uid="ent0008" id="entity_Document"><rect fill="#F1F1F1" height="162.0781" rx="2.5" ry="2.5" style="stroke:#181818;stroke-width:0.5;" width="116.6514" x="415.09" y="615.53"/><ellipse cx="435.5449" cy="631.53" fill="#ADD1B2" rx="11" ry="11" style="stroke:#181818;stroke-width:1;"/><path d="M438.5137,637.1706 Q437.9356,637.4675 437.2949,637.6081 Q436.6543,637.7644 435.9512,637.7644 Q433.4512,637.7644 432.1231,636.1238 Q430.8106,634.4675 430.8106,631.3425 Q430.8106,628.2175 432.1231,626.5613 Q433.4512,624.905 435.9512,624.905 Q436.6543,624.905 437.2949,625.0613 Q437.9512,625.2175 438.5137,625.5144 L438.5137,628.2331 Q437.8887,627.655 437.2949,627.3894 Q436.7012,627.1081 436.0762,627.1081 Q434.7324,627.1081 434.0449,628.1863 Q433.3574,629.2488 433.3574,631.3425 Q433.3574,633.4363 434.0449,634.5144 Q434.7324,635.5769 436.0762,635.5769 Q436.7012,635.5769 437.2949,635.3113 Q437.8887,635.03 438.5137,634.4519 L438.5137,637.1706 Z " fill="#000000"/><text fill="#000000" font-family="sans-serif" font-size="14" lengthAdjust="spacing" textLength="72.5293" x="450.7571" y="636.3767">Document</text><line style="stroke:#181818;stroke-width:0.5;" x1="416.09" x2="530.7414" y1="647.53" y2="647.53"/><ellipse cx="426.09" cy="661.1784" fill="none" rx="3" ry="3" style="stroke:#038048;stroke-width:1;"/><text fill="#000000" font-family="sans-serif" font-size="14" lengthAdjust="spacing" textLength="56.0684" x="435.09" y="664.5251">id: Long</text><ellipse cx="426.09" cy="677.4753" fill="none" rx="3" ry="3" style="stroke:#038048;stroke-width:1;"/><text fill="#000000" font-family="sans-serif" font-size="14" lengthAdjust="spacing" textLength="90.6514" x="435.09" y="680.822">name: String</text><ellipse cx="426.09" cy="693.7722" fill="none" rx="3" ry="3" style="stroke:#038048;stroke-width:1;"/><text fill="#000000" font-family="sans-serif" font-size="14" lengthAdjust="spacing" textLength="82.2227" x="435.09" y="697.1189">type: String</text><ellipse cx="426.09" cy="710.0691" fill="none" rx="3" ry="3" style="stroke:#038048;stroke-width:1;"/><text fill="#000000" font-family="sans-serif" font-size="14" lengthAdjust="spacing" textLength="70.4375" x="435.09" y="713.4157">size: Long</text><ellipse cx="426.09" cy="726.3659" fill="none" rx="3" ry="3" style="stroke:#038048;stroke-width:1;"/><text fill="#000000" font-family="sans-serif" font-size="14" lengthAdjust="spacing" textLength="69.4668" x="435.09" y="729.7126">url: String</text><line style="stroke:#181818;stroke-width:0.5;" x1="416.09" x2="530.7414" y1="737.0144" y2="737.0144"/><ellipse cx="426.09" cy="750.6628" fill="#84BE84" rx="3" ry="3" style="stroke:#038048;stroke-width:1;"/><text fill="#000000" font-family="sans-serif" font-size="14" lengthAdjust="spacing" textLength="58.6045" x="435.09" y="754.0095">upload()</text><ellipse cx="426.09" cy="766.9597" fill="#84BE84" rx="3" ry="3" style="stroke:#038048;stroke-width:1;"/><text fill="#000000" font-family="sans-serif" font-size="14" lengthAdjust="spacing" textLength="78.6201" x="435.09" y="770.3064">download()</text></g><!--class Notification--><g class="entity" data-entity="Notification" data-source-line="70" data-uid="ent0009" id="entity_Notification"><rect fill="#F1F1F1" height="145.7813" rx="2.5" ry="2.5" style="stroke:#181818;stroke-width:0.5;" width="177.498" x="520.67" y="343.86"/><ellipse cx="565.0045" cy="359.86" fill="#ADD1B2" rx="11" ry="11" style="stroke:#181818;stroke-width:1;"/><path d="M567.9732,365.5006 Q567.3951,365.7975 566.7545,365.9381 Q566.1138,366.0944 565.4107,366.0944 Q562.9107,366.0944 561.5826,364.4538 Q560.2701,362.7975 560.2701,359.6725 Q560.2701,356.5475 561.5826,354.8913 Q562.9107,353.235 565.4107,353.235 Q566.1138,353.235 566.7545,353.3913 Q567.4107,353.5475 567.9732,353.8444 L567.9732,356.5631 Q567.3482,355.985 566.7545,355.7194 Q566.1607,355.4381 565.5357,355.4381 Q564.192,355.4381 563.5045,356.5163 Q562.817,357.5788 562.817,359.6725 Q562.817,361.7663 563.5045,362.8444 Q564.192,363.9069 565.5357,363.9069 Q566.1607,363.9069 566.7545,363.6413 Q567.3482,363.36 567.9732,362.7819 L567.9732,365.5006 Z " fill="#000000"/><text fill="#000000" font-family="sans-serif" font-size="14" lengthAdjust="spacing" textLength="80.3291" x="585.5045" y="364.7067">Notification</text><line style="stroke:#181818;stroke-width:0.5;" x1="521.67" x2="697.168" y1="375.86" y2="375.86"/><ellipse cx="531.67" cy="389.5084" fill="none" rx="3" ry="3" style="stroke:#038048;stroke-width:1;"/><text fill="#000000" font-family="sans-serif" font-size="14" lengthAdjust="spacing" textLength="56.0684" x="540.67" y="392.8551">id: Long</text><ellipse cx="531.67" cy="405.8053" fill="none" rx="3" ry="3" style="stroke:#038048;stroke-width:1;"/><text fill="#000000" font-family="sans-serif" font-size="14" lengthAdjust="spacing" textLength="82.2227" x="540.67" y="409.152">type: String</text><ellipse cx="531.67" cy="422.1022" fill="none" rx="3" ry="3" style="stroke:#038048;stroke-width:1;"/><text fill="#000000" font-family="sans-serif" font-size="14" lengthAdjust="spacing" textLength="113.8662" x="540.67" y="425.4489">message: String</text><ellipse cx="531.67" cy="438.3991" fill="none" rx="3" ry="3" style="stroke:#038048;stroke-width:1;"/><text fill="#000000" font-family="sans-serif" font-size="14" lengthAdjust="spacing" textLength="151.498" x="540.67" y="441.7457">recipientEmail: String</text><ellipse cx="531.67" cy="454.6959" fill="none" rx="3" ry="3" style="stroke:#038048;stroke-width:1;"/><text fill="#000000" font-family="sans-serif" font-size="14" lengthAdjust="spacing" textLength="133.082" x="540.67" y="458.0426">sentAt: Timestamp</text><line style="stroke:#181818;stroke-width:0.5;" x1="521.67" x2="697.168" y1="465.3444" y2="465.3444"/><ellipse cx="531.67" cy="478.9928" fill="#84BE84" rx="3" ry="3" style="stroke:#038048;stroke-width:1;"/><text fill="#000000" font-family="sans-serif" font-size="14" lengthAdjust="spacing" textLength="44.5908" x="540.67" y="482.3395">send()</text></g><!--class AdminDashboard--><g class="entity" data-entity="AdminDashboard" data-source-line="89" data-uid="ent0017" id="entity_AdminDashboard"><rect fill="#F1F1F1" height="96.8906" rx="2.5" ry="2.5" style="stroke:#181818;stroke-width:0.5;" width="177.2178" x="668.81" y="72.18"/><ellipse cx="694.679" cy="88.18" fill="#ADD1B2" rx="11" ry="11" style="stroke:#181818;stroke-width:1;"/><path d="M697.6477,93.8206 Q697.0696,94.1175 696.429,94.2581 Q695.7884,94.4144 695.0852,94.4144 Q692.5852,94.4144 691.2571,92.7738 Q689.9446,91.1175 689.9446,87.9925 Q689.9446,84.8675 691.2571,83.2113 Q692.5852,81.555 695.0852,81.555 Q695.7884,81.555 696.429,81.7113 Q697.0852,81.8675 697.6477,82.1644 L697.6477,84.8831 Q697.0227,84.305 696.429,84.0394 Q695.8352,83.7581 695.2102,83.7581 Q693.8665,83.7581 693.179,84.8363 Q692.4915,85.8988 692.4915,87.9925 Q692.4915,90.0863 693.179,91.1644 Q693.8665,92.2269 695.2102,92.2269 Q695.8352,92.2269 696.429,91.9613 Q697.0227,91.68 697.6477,91.1019 L697.6477,93.8206 Z " fill="#000000"/><text fill="#000000" font-family="sans-serif" font-size="14" lengthAdjust="spacing" textLength="121.0645" x="711.0943" y="93.0267">AdminDashboard</text><line style="stroke:#181818;stroke-width:0.5;" x1="669.81" x2="845.0278" y1="104.18" y2="104.18"/><line style="stroke:#181818;stroke-width:0.5;" x1="669.81" x2="845.0278" y1="112.18" y2="112.18"/><ellipse cx="679.81" cy="125.8284" fill="#84BE84" rx="3" ry="3" style="stroke:#038048;stroke-width:1;"/><text fill="#000000" font-family="sans-serif" font-size="14" lengthAdjust="spacing" textLength="82.3662" x="688.81" y="129.1751">viewUsers()</text><ellipse cx="679.81" cy="142.1253" fill="#84BE84" rx="3" ry="3" style="stroke:#038048;stroke-width:1;"/><text fill="#000000" font-family="sans-serif" font-size="14" lengthAdjust="spacing" textLength="141.6475" x="688.81" y="145.472">manageTemplates()</text><ellipse cx="679.81" cy="158.4222" fill="#84BE84" rx="3" ry="3" style="stroke:#038048;stroke-width:1;"/><text fill="#000000" font-family="sans-serif" font-size="14" lengthAdjust="spacing" textLength="151.2178" x="688.81" y="161.7689">monitorApplications()</text></g><!--class ManagerDashboard--><g class="entity" data-entity="ManagerDashboard" data-source-line="95" data-uid="ent0018" id="entity_ManagerDashboard"><rect fill="#F1F1F1" height="96.8906" rx="2.5" ry="2.5" style="stroke:#181818;stroke-width:0.5;" width="169.5664" x="880.63" y="72.18"/><ellipse cx="895.63" cy="88.18" fill="#ADD1B2" rx="11" ry="11" style="stroke:#181818;stroke-width:1;"/><path d="M898.5988,93.8206 Q898.0206,94.1175 897.38,94.2581 Q896.7394,94.4144 896.0363,94.4144 Q893.5363,94.4144 892.2081,92.7738 Q890.8956,91.1175 890.8956,87.9925 Q890.8956,84.8675 892.2081,83.2113 Q893.5363,81.555 896.0363,81.555 Q896.7394,81.555 897.38,81.7113 Q898.0363,81.8675 898.5988,82.1644 L898.5988,84.8831 Q897.9738,84.305 897.38,84.0394 Q896.7863,83.7581 896.1613,83.7581 Q894.8175,83.7581 894.13,84.8363 Q893.4425,85.8988 893.4425,87.9925 Q893.4425,90.0863 894.13,91.1644 Q894.8175,92.2269 896.1613,92.2269 Q896.7863,92.2269 897.38,91.9613 Q897.9738,91.68 898.5988,91.1019 L898.5988,93.8206 Z " fill="#000000"/><text fill="#000000" font-family="sans-serif" font-size="14" lengthAdjust="spacing" textLength="137.5664" x="909.63" y="93.0267">ManagerDashboard</text><line style="stroke:#181818;stroke-width:0.5;" x1="881.63" x2="1049.1964" y1="104.18" y2="104.18"/><line style="stroke:#181818;stroke-width:0.5;" x1="881.63" x2="1049.1964" y1="112.18" y2="112.18"/><ellipse cx="891.63" cy="125.8284" fill="#84BE84" rx="3" ry="3" style="stroke:#038048;stroke-width:1;"/><text fill="#000000" font-family="sans-serif" font-size="14" lengthAdjust="spacing" textLength="143.0488" x="900.63" y="129.1751">reviewApplications()</text><ellipse cx="891.63" cy="142.1253" fill="#84BE84" rx="3" ry="3" style="stroke:#038048;stroke-width:1;"/><text fill="#000000" font-family="sans-serif" font-size="14" lengthAdjust="spacing" textLength="129.3018" x="900.63" y="145.472">approveOrReject()</text><ellipse cx="891.63" cy="158.4222" fill="#84BE84" rx="3" ry="3" style="stroke:#038048;stroke-width:1;"/><text fill="#000000" font-family="sans-serif" font-size="14" lengthAdjust="spacing" textLength="113.1621" x="900.63" y="161.7689">addComments()</text></g><!--class EmailService--><g class="entity" data-entity="EmailService" data-source-line="102" data-uid="ent0019" id="entity_EmailService"><rect fill="#F1F1F1" height="64.2969" rx="2.5" ry="2.5" style="stroke:#181818;stroke-width:0.5;" width="150.9199" x="566.96" y="664.42"/><ellipse cx="594.7116" cy="680.42" fill="#ADD1B2" rx="11" ry="11" style="stroke:#181818;stroke-width:1;"/><path d="M597.6804,686.0606 Q597.1022,686.3575 596.4616,686.4981 Q595.821,686.6544 595.1179,686.6544 Q592.6179,686.6544 591.2897,685.0138 Q589.9772,683.3575 589.9772,680.2325 Q589.9772,677.1075 591.2897,675.4513 Q592.6179,673.795 595.1179,673.795 Q595.821,673.795 596.4616,673.9513 Q597.1179,674.1075 597.6804,674.4044 L597.6804,677.1231 Q597.0554,676.545 596.4616,676.2794 Q595.8679,675.9981 595.2429,675.9981 Q593.8991,675.9981 593.2116,677.0763 Q592.5241,678.1388 592.5241,680.2325 Q592.5241,682.3263 593.2116,683.4044 Q593.8991,684.4669 595.2429,684.4669 Q595.8679,684.4669 596.4616,684.2013 Q597.0554,683.92 597.6804,683.3419 L597.6804,686.0606 Z " fill="#000000"/><text fill="#000000" font-family="sans-serif" font-size="14" lengthAdjust="spacing" textLength="90.583" x="611.5453" y="685.2667">EmailService</text><line style="stroke:#181818;stroke-width:0.5;" x1="567.96" x2="716.8799" y1="696.42" y2="696.42"/><line style="stroke:#181818;stroke-width:0.5;" x1="567.96" x2="716.8799" y1="704.42" y2="704.42"/><ellipse cx="577.96" cy="718.0684" fill="#84BE84" rx="3" ry="3" style="stroke:#038048;stroke-width:1;"/><text fill="#000000" font-family="sans-serif" font-size="14" lengthAdjust="spacing" textLength="124.9199" x="586.96" y="721.4151">sendNotification()</text></g><!--class AuthService--><g class="entity" data-entity="AuthService" data-source-line="106" data-uid="ent0020" id="entity_AuthService"><rect fill="#F1F1F1" height="80.5938" rx="2.5" ry="2.5" style="stroke:#181818;stroke-width:0.5;" width="125.9824" x="733.43" y="376.45"/><ellipse cx="752.6729" cy="392.45" fill="#ADD1B2" rx="11" ry="11" style="stroke:#181818;stroke-width:1;"/><path d="M755.6417,398.0906 Q755.0635,398.3875 754.4229,398.5281 Q753.7823,398.6844 753.0792,398.6844 Q750.5792,398.6844 749.251,397.0438 Q747.9385,395.3875 747.9385,392.2625 Q747.9385,389.1375 749.251,387.4813 Q750.5792,385.825 753.0792,385.825 Q753.7823,385.825 754.4229,385.9813 Q755.0792,386.1375 755.6417,386.4344 L755.6417,389.1531 Q755.0167,388.575 754.4229,388.3094 Q753.8292,388.0281 753.2042,388.0281 Q751.8604,388.0281 751.1729,389.1063 Q750.4854,390.1688 750.4854,392.2625 Q750.4854,394.3563 751.1729,395.4344 Q751.8604,396.4969 753.2042,396.4969 Q753.8292,396.4969 754.4229,396.2313 Q755.0167,395.95 755.6417,395.3719 L755.6417,398.0906 Z " fill="#000000"/><text fill="#000000" font-family="sans-serif" font-size="14" lengthAdjust="spacing" textLength="84.5537" x="767.6158" y="397.2967">AuthService</text><line style="stroke:#181818;stroke-width:0.5;" x1="734.43" x2="858.4124" y1="408.45" y2="408.45"/><line style="stroke:#181818;stroke-width:0.5;" x1="734.43" x2="858.4124" y1="416.45" y2="416.45"/><ellipse cx="744.43" cy="430.0984" fill="#84BE84" rx="3" ry="3" style="stroke:#038048;stroke-width:1;"/><text fill="#000000" font-family="sans-serif" font-size="14" lengthAdjust="spacing" textLength="99.9824" x="753.43" y="433.4451">authenticate()</text><ellipse cx="744.43" cy="446.3953" fill="#84BE84" rx="3" ry="3" style="stroke:#038048;stroke-width:1;"/><text fill="#000000" font-family="sans-serif" font-size="14" lengthAdjust="spacing" textLength="76.9111" x="753.43" y="449.742">authorize()</text></g><!--link User to Application--><g class="link" data-entity-1="User" data-entity-2="Application" data-source-line="80" data-uid="lnk10" id="link_User_Application"><path codeLine="80" d="M471.69,234.5 C459.74,259.61 447.12,286.13 435.32,310.9" fill="none" id="User-Application" style="stroke:#181818;stroke-width:1;"/><text fill="#000000" font-family="sans-serif" font-size="13" lengthAdjust="spacing" textLength="51.4097" x="456.42" y="277.3269">submits</text><text fill="#000000" font-family="sans-serif" font-size="13" lengthAdjust="spacing" textLength="8.271" x="460.0002" y="254.3462">1</text><text fill="#000000" font-family="sans-serif" font-size="13" lengthAdjust="spacing" textLength="6.5" x="432.4879" y="300.356">*</text></g><!--link User to Notification--><g class="link" data-entity-1="User" data-entity-2="Notification" data-source-line="81" data-uid="lnk11" id="link_User_Notification"><path codeLine="81" d="M557.65,234.5 C568.11,271.11 579.42,310.72 588.79,343.54" fill="none" id="User-Notification" style="stroke:#181818;stroke-width:1;"/><text fill="#000000" font-family="sans-serif" font-size="13" lengthAdjust="spacing" textLength="54.5645" x="571.42" y="277.3269">receives</text><text fill="#000000" font-family="sans-serif" font-size="13" lengthAdjust="spacing" textLength="8.271" x="551.467" y="254.3462">1</text><text fill="#000000" font-family="sans-serif" font-size="13" lengthAdjust="spacing" textLength="6.5" x="580.4886" y="332.6685">*</text></g><!--link Application to Template--><g class="link" data-entity-1="Application" data-entity-2="Template" data-source-line="82" data-uid="lnk12" id="link_Application_Template"><path codeLine="82" d="M348.88,522.38 C340.13,547.45 330.82,574.12 322.2,598.81" fill="none" id="Application-Template" style="stroke:#181818;stroke-width:1;"/><text fill="#000000" font-family="sans-serif" font-size="13" lengthAdjust="spacing" textLength="29.7832" x="338.42" y="565.2969">uses</text><text fill="#000000" font-family="sans-serif" font-size="13" lengthAdjust="spacing" textLength="8.271" x="338.039" y="542.4064">1</text><text fill="#000000" font-family="sans-serif" font-size="13" lengthAdjust="spacing" textLength="8.271" x="316.3974" y="588.152">1</text></g><!--link Application to Document--><g class="link" data-entity-1="Application" data-entity-2="Document" data-source-line="83" data-uid="lnk13" id="link_Application_Document"><path codeLine="83" d="M418.56,522.38 C428.31,553.15 438.81,586.3 447.99,615.29" fill="none" id="Application-Document" style="stroke:#181818;stroke-width:1;"/><text fill="#000000" font-family="sans-serif" font-size="13" lengthAdjust="spacing" textLength="55.0278" x="433.42" y="565.2969">contains</text><text fill="#000000" font-family="sans-serif" font-size="13" lengthAdjust="spacing" textLength="8.271" x="412.6184" y="542.4064">1</text><text fill="#000000" font-family="sans-serif" font-size="13" lengthAdjust="spacing" textLength="6.5" x="439.4806" y="604.4559">*</text></g><!--link Application to ApplicationStatus--><g class="link" data-entity-1="Application" data-entity-2="ApplicationStatus" data-source-line="84" data-uid="lnk14" id="link_Application_ApplicationStatus"><path codeLine="84" d="M284.71,506.99 C278.86,512.15 273.07,517.26 267.42,522.23 C228.41,556.57 217.24,563.59 179.42,599.23 C163,614.69 145.54,632.11 130.12,647.83" fill="none" id="Application-ApplicationStatus" style="stroke:#181818;stroke-width:1;"/><text fill="#000000" font-family="sans-serif" font-size="13" lengthAdjust="spacing" textLength="22.9785" x="233.42" y="565.2969">has</text><text fill="#000000" font-family="sans-serif" font-size="13" lengthAdjust="spacing" textLength="8.271" x="268.7035" y="510.3972">1</text><text fill="#000000" font-family="sans-serif" font-size="13" lengthAdjust="spacing" textLength="8.271" x="128.0035" y="636.9981">1</text></g><!--link Template to TemplateType--><g class="link" data-entity-1="Template" data-entity-2="TemplateType" data-source-line="85" data-uid="lnk15" id="link_Template_TemplateType"><path codeLine="85" d="M288.42,794.32 C288.42,820.31 288.42,847.56 288.42,870.51" fill="none" id="Template-TemplateType" style="stroke:#181818;stroke-width:1;"/><text fill="#000000" font-family="sans-serif" font-size="13" lengthAdjust="spacing" textLength="22.9785" x="289.42" y="836.9669">has</text><text fill="#000000" font-family="sans-serif" font-size="13" lengthAdjust="spacing" textLength="8.271" x="280.1367" y="814.1214">1</text><text fill="#000000" font-family="sans-serif" font-size="13" lengthAdjust="spacing" textLength="8.271" x="279.9499" y="859.726">1</text></g><!--link User to UserRole--><g class="link" data-entity-1="User" data-entity-2="UserRole" data-source-line="86" data-uid="lnk16" id="link_User_UserRole"><path codeLine="86" d="M416.67,187.93 C367.56,221.13 310.93,264.24 267.42,311.26 C251.89,328.04 237.99,349.04 227.06,367.81" fill="none" id="User-UserRole" style="stroke:#181818;stroke-width:1;"/><text fill="#000000" font-family="sans-serif" font-size="13" lengthAdjust="spacing" textLength="22.9785" x="312.42" y="277.3269">has</text><text fill="#000000" font-family="sans-serif" font-size="13" lengthAdjust="spacing" textLength="8.271" x="400.7517" y="189.2061">1</text><text fill="#000000" font-family="sans-serif" font-size="13" lengthAdjust="spacing" textLength="8.271" x="221.8526" y="357.3023">1</text></g><!--link Notification to EmailService--><g class="link" data-entity-1="Notification" data-entity-2="EmailService" data-source-line="112" data-uid="lnk21" id="link_Notification_EmailService"><path codeLine="112" d="M618,490.01 C624.7,546.45 632.9821,616.1519 637.9721,658.1519" fill="none" id="Notification-to-EmailService" style="stroke:#181818;stroke-width:1;"/><polygon fill="#181818" points="638.68,664.11,641.5902,654.7009,638.0901,659.1449,633.6461,655.6448,638.68,664.11" style="stroke:#181818;stroke-width:1;"/><text fill="#000000" font-family="sans-serif" font-size="13" lengthAdjust="spacing" textLength="61.439" x="628.42" y="565.2969">sends via</text></g><!--link User to AuthService--><g class="link" data-entity-1="User" data-entity-2="AuthService" data-source-line="113" data-uid="lnk22" id="link_User_AuthService"><path codeLine="113" d="M634.38,225.64 C661.56,252.85 690.14,282.6 715.42,311.26 C733.64,331.92 748.9777,351.3617 763.9477,371.3017" fill="none" id="User-to-AuthService" style="stroke:#181818;stroke-width:1;"/><polygon fill="#181818" points="767.55,376.1,765.3454,366.5011,764.5481,372.1014,758.9477,371.3041,767.55,376.1" style="stroke:#181818;stroke-width:1;"/><text fill="#000000" font-family="sans-serif" font-size="13" lengthAdjust="spacing" textLength="112.874" x="687.42" y="277.3269">authenticates via</text></g><!--SRC=[bLNRJjim6BxlKrZiWXt4nMvpCIcqWPL3gPg2n1KoYMaz9N5cEqKRGgBiPXAJaAPTJzeR80GR6h2zWlD6- -sqgTF3fZMgOl_-_1y-V_wp_4J_aFgQ3zMZ-gMkrMD-eMwH-gdkrLK-XES26KmjYB0GQ5SGZavg2BsWeOEsMDBJOn9Z6Zd8bvmcFNII9VHjHaxrIWgRZXaF9ujzBFeaD8j7MHIrS4p6YzeMaXHp6PD4sbRE8a3fu1qOQKl02POaT07MfJ4H4iUfIKkuWQG3GAyoWEB4R2SzAYJXJv_fMSHwD2c6d0WYswCSmNHQgv4aYyj8fbHlkxsri-zvCDnsM-wwru6HszXkjZI-uCLDquW6M5AMpD8ZgOocYXG1fwb6s-OZIg9GE6Z3tsdfEHGbCvXRpdrZ-Xi1MHhEjOliCAQoA1jBYOD-WmMP9hgm5ViA_nOJCx5DUMslrMYsrZKFxNPdPyzhmB3ZRNZrBWnBLheaJYFmEaj9CdFiSncHxrA0ZTrqOJQFf__IGW4UkxHhNpDkhThjkAQ4FRVkTficwEgktsnvld_GxJJRCFURzSs3BS_Tqp9PQtQy0zzTyxhx1_NNNdrpGicOz7zJKjG-cGlwdapG6O_inIoD60wBQa9sd8ncPTWMa_HeiK2dGW670lSg9au2cb98tBFlkiaBZBDg8yae_lAenNnJr_cb-g7ka7fGj-gxkia_M7r6NO7vRjHhJ9TPUhc4LbRGqlEbokroKA5aCOEgrEWWo9Z0uOkQlNiCXrSfJWTbOW4Cl9O7vg209HBJPA77sRlY86XtjJBIdEX6MmMiKW-yoYPKB9TCVe56_Hl-zz2ox_9p8FC-_pIlSQiRMBb4GEsD9jV0X_bvVWRlCzFjhupjijBYtJ2cIGEwz273F2p4Cg3aMASZ2eN5E05vZ4iO6rb29UCM2S9MuBRPmwSSSw9TJ-tH7IfDEHkG7TuXRqWmRbjXM6UnFWnHrTPdAECs_wYB0Gv0JAPE8EPXwlDbnEiJFg31g2bfeTh2iLDsCzclW34O8Bg6ZZg7jZ0EDtEHsFCXqb_LChq7OviaMD5zHS4hAw-g-OBo8Lc11XGNMj48EqS7sGaQu1y0]--></g></svg>